# xmcd
#
# Track frame offsets:
#	150
#	13639
#	27386
#	42742
#	64833
#	81855
#	98448
#	114609
#	129809
#	140892
#	157113
#	175817
#	190220
#	200120
#	220865
#	240539
#	253985
#	272845
#	282917
#
# Disc length: 3949 seconds
#
# Revision: 1
# Processed by: cddbd v1.5.2PL0 Copyright (c) Steve Scherf et al.
# Submitted via: audiograbber 1.83.01
#
DISCID=210f6b13
DTITLE=Verschiedene Interpreten  - 25 Jahre Trucker Treff in Kaunitz 
DYEAR=2010
DGENRE=Country
TTITLE0=Michael Heck - Ich bin wieder on the Road again (TTKaunitz Part2)
TTITLE1=Truck Stop - Hilly Billy Country Lilly 
TTITLE2=Cody - Some Beach
TTITLE3=Tom Astor - Trucker Medley 
TTITLE4=Andreas Oscar  - Ein Haus ist ein Daheim nur mit Dir
TTITLE5=Kim West - So wie es ist
TTITLE6=Gunter Gabriel - Freund aller Fahrer
TTITLE7=Norton West - Ich bin ein Countryboy
TTITLE8=Hermann Lammers Meyer - Moonshine Ladies
TTITLE9=Ted Herold und Susan Kent - Rock ´n´ Roll meets Country
TTITLE10=Country Pur - Was macht ein Cowboy wenn er Kummer hat
TTITLE11=Truck Stop - Tanz mit Mir
TTITLE12=Rio Carter - Hallo Dieter, alter Freund
TTITLE13=Gunter Gabriel - Ich lieb die Bullen
TTITLE14=Hermann Lammers Meyer - Alley Of Shame
TTITLE15=Arizona K - Down I a Ditch
TTITLE16=Churchtown Cowboys - Motorcyle Cowboy 
TTITLE17=Tom Astor  - Auf der Autobahn 
TTITLE18=Michael Heck  - Trucker Treff in Kaunitz
EXTD=Anläßlich des 25jährigen Jubiläums des Trucker Treffen in Kaunitz hat die 
EXTD=Familie Niebel eine Sampler CD in Auftrag gegeben mit Künstlern die seit J
EXTD=ahren immer wieder auf diesem Event auftreten. 
EXTT0=
EXTT1=
EXTT2=
EXTT3=
EXTT4=
EXTT5=
EXTT6=
EXTT7=
EXTT8=
EXTT9=
EXTT10=
EXTT11=
EXTT12=
EXTT13=
EXTT14=
EXTT15=
EXTT16=
EXTT17=
EXTT18=
PLAYORDER=
